#!OML:ASF F:\VICON\USERDATA\INSTALL\rory3\rory3.ASF
:FULLY-SPECIFIED
:DEGREES
856
root 0.850811 17.6434 -12.2738 37.9885 -9.58826 -395.338
lowerback -10.4455 10.5218 18.1789
upperback -14.0382 13.3897 5.08308
thorax -7.32327 5.44939 -3.31349
lowerneck -12.8317 -0.829948 1.53787
upperneck 37.69 -2.8945 3.20141
head 15.4222 -0.556289 0.610692
rclavicle 1.00902e-013 9.54166e-015
rhumerus 96.1894 -32.8605 -71.9041
rradius 23.6265
rwrist -32.4095
rhand -5.27315 11.6256
rfingers 7.12502
rthumb 20.531 -17.3088
lclavicle 1.00902e-013 9.54166e-015
lhumerus 27.3425 44.4842 -5.21028
lradius 31.1896
lwrist 9.68854
lhand 5.74398 17.2593
lfingers 7.12502
lthumb 31.0793 44.6456
rfemur 10.634 28.3155 -5.25471
rtibia 37.2423
rfoot 25.4025 -36.0395
rtoes 40.1573
lfemur 138.627 150.382 171.762
ltibia 32.9984
lfoot -40.7653 29.2752
ltoes -9.19265
857
root 0.853016 17.3683 -12.4103 38.263 -9.31536 -395.232
lowerback -10.3388 10.2272 17.9734
upperback -14.0864 13.0691 5.37877
thorax -7.60275 5.29631 -2.97669
lowerneck -13.277 -0.638593 1.71925
upperneck 37.78 -2.65054 3.09856
head 15.5659 -0.436208 0.574403
rclavicle 2.65937e-014 -4.53229e-014
rhumerus 97.0233 -32.9884 -73.1966
rradius 22.1355
rwrist -27.6631
rhand -4.42101 12.4256
rfingers 7.12502
rthumb 21.3496 -16.4183
lclavicle 2.65937e-014 -4.53229e-014
lhumerus 26.0902 44.3249 -4.94177
lradius 30.4489
lwrist 8.62004
lhand 4.11487 17.7341
lfingers 7.12502
lthumb 29.5254 45.4063
rfemur 10.9371 27.1538 -3.84861
rtibia 37.4888
rfoot 23.5519 -35.9756
rtoes 40.2684
lfemur 137.636 151.652 172.102
ltibia 34.4447
lfoot -44.3852 27.8573
ltoes -8.49302
858
root 0.86154 17.1086 -12.5322 38.8763 -9.41251 -394.935
lowerback -10.5472 10.0634 17.3074
upperback -14.3206 12.888 5.54011
thorax -7.93929 5.24218 -2.49966
lowerneck -13.4357 -0.520735 1.91477
upperneck 38.0106 -2.485 2.91594
head 15.7121 -0.35894 0.49145
rclavicle -3.15136e-014 3.4191e-014
rhumerus 97.8111 -33.2018 -74.7436
rradius 20.7022
rwrist -22.4755
rhand -3.41814 13.01
rfingers 7.12502
rthumb 22.3126 -15.7217
lclavicle -3.15136e-014 3.4191e-014
lhumerus 24.6935 43.76 -4.8952
lradius 29.7445
lwrist 7.97822
lhand 2.695 18.1585
lfingers 7.12502
lthumb 28.1691 46.0622
rfemur 10.5807 25.8742 -3.08902
rtibia 37.7347
rfoot 21.71 -36.0113
rtoes 40.1381
lfemur 135.63 152.618 171.85
ltibia 36.919
lfoot -46.9734 25.5343
ltoes -5.80379
859
root 0.880988 16.8968 -12.6433 39.5376 -9.31795 -394.34
lowerback -10.7265 9.79861 16.3813
upperback -14.6376 12.6131 5.65213
thorax -8.4261 5.15421 -1.96977
lowerneck -13.5619 -0.522671 1.90417
upperneck 38.1412 -2.4713 2.83264
head 15.8068 -0.364038 0.460748
rclavicle 9.02607e-014 5.56597e-014
rhumerus 98.0602 -33.613 -75.6871
rradius 19.7916
rwrist -17.7347
rhand -3.17378 13.706
rfingers 7.12502
rthumb 22.5472 -14.9974
lclavicle 9.02607e-014 5.56597e-014
lhumerus 23.7799 43.7832 -4.12193
lradius 28.888
lwrist 6.54659
lhand 1.77632 18.3317
lfingers 7.12502
lthumb 27.2907 46.3767
rfemur 10.103 24.3641 -2.17544
rtibia 38.0198
rfoot 19.9459 -36.3354
rtoes 40.4917
lfemur 131.917 151.974 170.104
ltibia 40.6772
lfoot -47.5642 20.7678
ltoes 0.97512
860
root 0.88807 16.7203 -12.7663 40.296 -9.06034 -393.491
lowerback -11.0204 9.43361 15.1378
upperback -14.9178 12.1936 5.72665
thorax -8.85037 5.0365 -1.31215
lowerneck -14.0487 -0.574485 1.75933
upperneck 38.2778 -2.54177 2.84059
head 15.9979 -0.407314 0.478
rclavicle -4.37016e-014 -1.59028e-015
rhumerus 96.9224 -34.547 -74.7251
rradius 19.7302
rwrist -14.7096
rhand -3.8223 14.1586
rfingers 7.12502
rthumb 21.9246 -14.619
lclavicle -4.37016e-014 -1.59028e-015
lhumerus 23.0442 44.3946 -2.90034
lradius 28.0807
lwrist 4.52135
lhand 0.527281 18.504
lfingers 7.12502
lthumb 26.0953 46.7312
rfemur 9.26623 22.8545 -1.08137
rtibia 38.6604
rfoot 18.1251 -36.4685
rtoes 40.3274
lfemur 126.368 151.085 167.683
ltibia 45.509
lfoot -45.0297 23.3877
ltoes -5.20048
861
root 0.85472 16.541 -12.9334 40.804 -8.7402 -392.434
lowerback -11.3628 9.00258 13.5658
upperback -14.9402 11.6628 5.75218
thorax -8.96259 4.9264 -0.519427
lowerneck -15.0614 -0.671553 1.51766
upperneck 38.3975 -2.71782 2.98361
head 16.319 -0.483091 0.55131
rclavicle 4.56584e-015 3.49861e-014
rhumerus 94.8306 -36.1957 -72.2915
rradius 20.3608
rwrist -13.6151
rhand -3.76618 13.9039
rfingers 7.12502
rthumb 21.9785 -14.8674
lclavicle 4.56584e-015 3.49861e-014
lhumerus 22.3197 45.3324 -1.43772
lradius 27.4094
lwrist 2.49495
lhand -1.30961 18.5468
lfingers 7.12502
lthumb 24.3354 47.0218
rfemur 8.35126 21.6232 0.283813
rtibia 39.8405
rfoot 17.2166 -35.5001
rtoes 38.6044
lfemur 121.23 151.172 165.726
ltibia 50.5062
lfoot -44.6596 23.2012
ltoes -4.70742
862
root 0.798063 16.3554 -13.1363 41.1033 -8.12476 -390.959
lowerback -11.7762 8.42017 11.8801
upperback -14.834 10.9065 5.62125
thorax -8.85459 4.71864 0.177583
lowerneck -16.4191 -0.740055 1.43975
upperneck 38.5704 -2.91431 3.12094
head 16.7597 -0.537264 0.588833
rclavicle 3.44146e-014 6.59965e-014
rhumerus 91.3676 -38.3564 -68.1406
rradius 21.6232
rwrist -14.702
rhand -4.00772 13.3309
rfingers 7.12502
rthumb 21.7465 -15.4676
lclavicle 3.44146e-014 6.59965e-014
lhumerus 20.4955 45.2243 -1.1884
lradius 27.2372
lwrist 2.04141
lhand -3.39369 18.6972
lfingers 7.12502
lthumb 22.3361 47.4261
rfemur 7.50012 20.3657 1.86576
rtibia 41.273
rfoot 16.969 -33.964
rtoes 37.8051
lfemur 117.196 152.496 164.226
ltibia 54.4135
lfoot -45.3365 21.7917
ltoes -1.71128
863
root 0.739557 16.1658 -13.3494 41.7172 -7.32751 -389.341
lowerback -12.5576 7.77176 10.2848
upperback -14.8182 10.01 5.45296
thorax -8.61989 4.43047 0.838912
lowerneck -17.287 -0.824984 1.31544
upperneck 38.4324 -3.09085 3.26894
head 16.9152 -0.599629 0.638908
rclavicle -6.57977e-014 -3.10104e-014
rhumerus 87.0277 -40.2224 -63.416
rradius 23.1951
rwrist -16.6382
rhand -4.52439 12.8223
rfingers 7.12502
rthumb 21.2503 -16.0328
lclavicle -6.57977e-014 -3.10104e-014
lhumerus 17.6053 43.9858 -2.08301
lradius 27.186
lwrist 2.32401
lhand -5.7559 19.154
lfingers 7.12502
lthumb 20.067 48.1378
rfemur 6.13814 18.8902 3.41889
rtibia 42.6451
rfoot 16.7382 -32.6438
rtoes 37.6412
lfemur 113.492 154.484 162.919
ltibia 57.2268
lfoot -45.7342 21.049
ltoes -0.381517
864
root 0.731988 16.1141 -13.5019 41.4967 -7.65247 -387.71
lowerback -11.7991 7.29494 8.19288
upperback -14.7502 9.6223 5.05934
thorax -9.14726 4.39602 1.37258
lowerneck -16.556 -1.25074 0.637058
upperneck 37.1971 -3.71844 4.02914
head 16.1357 -0.882895 0.958795
rclavicle 7.15128e-014 1.09729e-013
rhumerus 81.0634 -41.9921 -57.3121
rradius 25.0445
rwrist -19.7161
rhand -5.01823 12.1564
rfingers 7.12502
rthumb 20.7759 -16.7514
lclavicle 7.15128e-014 1.09729e-013
lhumerus 15.6061 42.5474 -2.2871
lradius 26.6783
lwrist 1.6812
lhand -8.0706 19.7431
lfingers 7.12502
lthumb 17.8409 48.9447
rfemur 5.08126 18.4095 4.57897
rtibia 43.3135
rfoot 14.6199 -32.0714
rtoes 34.7317
lfemur 112.028 155.319 160.98
ltibia 58.4983
lfoot -45.3097 21.2344
ltoes -1.62488
865
root 0.73032 16.0417 -13.6315 41.2552 -7.51028 -386.628
lowerback -11.1952 7.02431 7.28935
upperback -14.8121 9.38089 4.56856
thorax -9.57266 4.31614 1.22701
lowerneck -16.8678 -1.14468 1.41229
upperneck 37.2708 -3.69198 3.65145
head 16.2235 -0.807298 0.661301
rclavicle -3.15074e-014 -8.66701e-014
rhumerus 72.4537 -43.1304 -48.7594
rradius 27.1554
rwrist -24.051
rhand -5.97699 11.0718
rfingers 7.12502
rthumb 19.8545 -17.9341
lclavicle -3.15074e-014 -8.66701e-014
lhumerus 14.435 40.7238 -1.98684
lradius 25.8787
lwrist 0.290269
lhand -9.59456 20.1492
lfingers 7.12502
lthumb 16.3741 49.478
rfemur 4.38882 17.4572 6.30936
rtibia 43.258
rfoot 12.8848 -31.8159
rtoes 32.273
lfemur 110.738 155.679 159.556
ltibia 59.4025
lfoot -44.6593 20.8319
ltoes -1.95481
866
root 0.741409 15.9905 -13.7173 41.0351 -7.71903 -385.634
lowerback -11.2334 6.82167 6.29569
upperback -14.4935 9.10758 4.19174
thorax -9.22466 4.26521 1.35386
lowerneck -16.5036 -1.36225 1.24563
upperneck 36.5097 -4.06955 4.06648
head 15.7767 -0.952498 0.791421
rclavicle 8.26447e-014 6.75868e-014
rhumerus 64.711 -43.2215 -41.224
rradius 29.025
rwrist -27.9703
rhand -7.72097 10.5281
rfingers 7.12502
rthumb 18.1773 -18.6425
lclavicle 8.26447e-014 6.75868e-014
lhumerus 13.2344 39.6389 -1.54737
lradius 24.9029
lwrist -2.31024
lhand -10.2029 20.2509
lfingers 7.12502
lthumb 15.7882 49.6271
rfemur 3.83225 16.5342 7.70975
rtibia 42.3061
rfoot 11.2982 -31.7069
rtoes 32.4126
lfemur 109.959 155.601 157.891
ltibia 59.8433
lfoot -44.082 20.2072
ltoes -2.33483
